<?xml version="1.0" encoding="UTF-8"?>
<!DOCTYPE svg PUBLIC "-//W3C//DTD SVG 1.1//EN" "http://www.w3.org/Graphics/SVG/1.1/DTD/svg11.dtd">
<svg xmlns="http://www.w3.org/2000/svg" version="1.1" width="113px" height="113px" style="shape-rendering:geometricPrecision; text-rendering:geometricPrecision; image-rendering:optimizeQuality; fill-rule:evenodd; clip-rule:evenodd" xmlns:xlink="http://www.w3.org/1999/xlink">
<g><path style="opacity:0.971" fill="#fefffe" d="M 59.5,14.5 C 70.7976,12.4285 79.9643,15.7618 87,24.5C 93.2045,39.9735 96.5379,55.9735 97,72.5C 95.0367,78.7987 91.2034,83.632 85.5,87C 74.8914,90.2028 64.2247,93.2028 53.5,96C 44.7534,97.7166 36.7534,96.05 29.5,91C 27.2728,88.4359 25.4394,85.6026 24,82.5C 21.3333,72.5 18.6667,62.5 16,52.5C 13.4312,41.2016 16.5979,32.0349 25.5,25C 36.836,21.1716 48.1693,17.6716 59.5,14.5 Z M 61.5,26.5 C 67.386,25.3435 72.2193,27.0102 76,31.5C 80.6623,43.4753 83.6623,55.8086 85,68.5C 83.2068,71.2953 81.0402,73.7953 78.5,76C 67.0152,79.7894 55.3485,82.4561 43.5,84C 39.3333,82.5 36.5,79.6667 35,75.5C 32.8222,67.1222 30.4889,58.7889 28,50.5C 26.026,42.949 28.526,37.449 35.5,34C 44.3744,31.7859 53.0411,29.2859 61.5,26.5 Z"/></g>
</svg>
